<?xml version="1.0" standalone="no"?>
<!DOCTYPE svg PUBLIC "-//W3C//DTD SVG 20010904//EN"
 "http://www.w3.org/TR/2001/REC-SVG-20010904/DTD/svg10.dtd">
<svg version="1.0" xmlns="http://www.w3.org/2000/svg"
 width="200.000000pt" height="82.000000pt" viewBox="0 0 200.000000 82.000000"
 preserveAspectRatio="xMidYMid meet">

<g transform="translate(0.000000,82.000000) scale(0.100000,-0.100000)"
fill="#000000" stroke="none">
<path d="M193 695 c-27 -19 -30 -40 -38 -229 l-7 -149 110 -108 c109 -108 140
-127 186 -115 23 6 101 80 170 164 l35 43 -5 132 c-6 145 -14 179 -47 196 -32
16 -312 81 -350 81 -18 0 -42 -7 -54 -15z"/>
<path d="M834 533 c-34 -6 -67 -49 -67 -85 0 -41 35 -71 107 -92 55 -16 66
-28 66 -71 0 -51 -88 -62 -140 -18 -25 20 -34 23 -40 13 -21 -33 49 -80 120
-80 85 0 133 98 76 155 -21 21 -81 45 -113 45 -12 0 -43 38 -43 52 0 5 9 17
20 28 28 28 72 25 109 -6 26 -22 32 -23 37 -10 8 21 -13 46 -53 63 -33 13 -40
14 -79 6z"/>
<path d="M1643 529 c-27 -14 -58 -71 -50 -93 10 -26 24 -19 44 22 13 28 25 38
46 40 62 7 89 -64 43 -107 -30 -28 -59 -87 -51 -101 11 -17 35 -11 35 9 0 11
18 41 40 66 47 55 53 99 17 140 -25 30 -88 42 -124 24z"/>
<path d="M1040 425 c-20 -24 -7 -150 17 -183 26 -35 75 -49 116 -34 22 8 34 8
43 1 27 -22 34 3 34 112 0 100 -2 110 -17 107 -15 -3 -19 -16 -21 -78 -2 -51
-8 -80 -19 -92 -16 -18 -68 -24 -90 -10 -20 13 -33 61 -33 122 0 62 -10 80
-30 55z"/>
<path d="M1384 425 c-54 -28 -64 -59 -64 -195 0 -110 2 -121 18 -118 13 2 18
15 20 61 l3 57 29 -15 c66 -34 139 0 161 74 28 95 -78 181 -167 136z m91 -31
c25 -10 47 -62 40 -95 -14 -61 -96 -81 -134 -33 -54 69 12 159 94 128z"/>
<path d="M1677 253 c-11 -10 -8 -41 4 -49 6 -3 18 1 27 9 13 13 13 19 2 31
-14 17 -23 20 -33 9z"/>
</g>
</svg>
